# xmcd
#
# Track frame offsets: 
#        150
#        18808
#        31311
#        44676
#        60470
#        73219
#        86722
#        97739
#        114064
#        127661
#        142165
#        153380
#        163784
#        173916
#        185925
#        201447
#        214933
#        228522
#        242367
#        259218
#
# Disc length: 3641 seconds
#
# Revision: 3
# Processed by: cddbd v1.5.2PL0 Copyright (c) Steve Scherf et al.
# Submitted via: ExactAudioCopyFreeDBPlugin 1.0
#
DISCID=190e3714
DTITLE=Crystal Gayle - 100 Hits Legends [CD 4)
DYEAR=2011
DGENRE=Country
TTITLE0=Someday
TTITLE1=Crazy
TTITLE2=I Fall To Pieces
TTITLE3=Deeper In The Fire
TTITLE4=You Bring Out The Lover In Me
TTITLE5=Amazing Grace
TTITLE6=He's Got The Whole World In His Hands
TTITLE7=Old Habits Die Hard
TTITLE8=Prove Me Wrong
TTITLE9=When Love Is New
TTITLE10=Hollywood
TTITLE11=Oh, Lonesome Me
TTITLE12=Silver Threads And Golden Needles
TTITLE13=Love Crazy Love
TTITLE14=Little Bit Closer
TTITLE15=Do I Have To Say Goodbye?
TTITLE16=Deep Down
TTITLE17=Crazy In The Heart
TTITLE18=Lonely Girl
TTITLE19=Take This Heart
EXTD=Disc 4 of 5
EXTT0=
EXTT1=
EXTT2=
EXTT3=
EXTT4=
EXTT5=
EXTT6=
EXTT7=
EXTT8=
EXTT9=
EXTT10=
EXTT11=
EXTT12=
EXTT13=
EXTT14=
EXTT15=
EXTT16=
EXTT17=
EXTT18=
EXTT19=
PLAYORDER=
